<?xml version="1.0" standalone="no"?>
<!DOCTYPE svg PUBLIC "-//W3C//DTD SVG 20010904//EN"
 "http://www.w3.org/TR/2001/REC-SVG-20010904/DTD/svg10.dtd">
<svg version="1.0" xmlns="http://www.w3.org/2000/svg"
 width="128.000000pt" height="128.000000pt" viewBox="0 0 128.000000 128.000000"
 preserveAspectRatio="xMidYMid meet">

<g transform="translate(0.000000,128.000000) scale(0.100000,-0.100000)"
fill="#000000" stroke="none">
<path d="M62 1230 c-60 -37 -62 -49 -62 -464 0 -320 2 -382 16 -415 24 -60 54
-74 159 -79 94 -3 122 5 112 32 -5 13 -23 16 -97 16 -83 0 -93 2 -115 25 l-25
24 0 251 0 250 545 0 545 0 0 -128 0 -128 -30 -11 c-41 -16 -65 -7 -81 30 -12
27 -20 33 -53 35 -59 5 -83 -4 -94 -37 -11 -32 -47 -50 -65 -32 -20 20 -53 11
-85 -22 -34 -35 -39 -56 -22 -88 12 -22 -3 -59 -24 -59 -23 0 -46 -36 -46 -73
l0 -37 -86 0 c-83 0 -85 -1 -82 -22 3 -22 7 -23 119 -26 107 -2 117 -4 122
-22 3 -11 0 -34 -6 -50 -10 -25 -8 -34 9 -57 29 -40 68 -57 95 -43 29 16 69 4
69 -20 0 -26 37 -50 78 -50 44 0 68 14 76 45 7 29 44 42 75 26 46 -25 125 54
100 100 -16 31 -3 68 26 75 31 8 45 32 45 76 0 40 -24 78 -50 78 -25 0 -35 35
-20 71 10 24 10 33 -4 54 -14 21 -16 63 -16 302 0 251 -2 282 -19 320 -35 75
-17 73 -578 73 -482 0 -499 -1 -531 -20z m1049 -49 c22 -18 24 -27 27 -140 l4
-121 -546 0 -546 0 0 114 c0 99 3 117 21 140 l20 26 499 0 c475 0 499 -1 521
-19z m-121 -584 c0 -18 11 -27 49 -44 45 -19 52 -19 71 -6 19 13 23 13 41 -3
18 -16 18 -19 3 -35 -15 -16 -14 -22 4 -71 16 -43 24 -54 46 -56 21 -3 26 -9
26 -32 0 -23 -5 -29 -26 -32 -20 -2 -30 -14 -46 -51 -20 -46 -20 -48 -2 -68
17 -19 17 -20 -4 -41 -21 -21 -22 -21 -41 -4 -20 18 -22 18 -68 -2 -37 -16
-49 -26 -51 -46 -3 -21 -9 -26 -32 -26 -23 0 -29 5 -32 26 -2 22 -13 30 -56
46 -49 18 -55 19 -71 4 -16 -15 -19 -15 -35 3 -16 18 -16 22 -3 41 13 19 13
26 -6 71 -17 38 -26 49 -44 49 -19 0 -23 5 -23 30 0 23 5 30 19 30 23 0 33 13
54 66 14 38 14 42 -1 58 -15 15 -15 18 5 38 21 21 23 21 41 4 19 -16 22 -16
68 6 34 16 50 30 52 46 3 17 10 22 33 22 24 0 29 -4 29 -23z"/>
<path d="M189 1127 c-41 -31 -49 -81 -19 -119 52 -67 164 -14 144 68 -13 51
-86 81 -125 51z m76 -58 c14 -42 -45 -66 -61 -24 -10 25 4 45 30 45 16 0 27
-7 31 -21z"/>
<path d="M395 1115 c-32 -31 -32 -76 -2 -109 38 -43 106 -36 132 14 42 82 -65
161 -130 95z m86 -41 c9 -11 10 -20 2 -32 -13 -22 -43 -22 -56 -1 -24 38 25
68 54 33z"/>
<path d="M695 1115 c-44 -43 -29 -112 29 -135 36 -13 235 -13 275 1 62 22 75
98 24 139 -23 18 -41 20 -165 20 -134 0 -140 -1 -163 -25z m306 -41 c9 -11 10
-20 2 -32 -15 -25 -253 -30 -277 -7 -12 13 -13 21 -6 36 10 17 22 19 139 19
105 0 131 -3 142 -16z"/>
<path d="M895 490 c-11 -4 -33 -22 -49 -39 -24 -25 -30 -42 -34 -88 -3 -48 0
-64 20 -93 63 -94 200 -91 255 6 59 102 -11 225 -126 223 -25 0 -55 -4 -66 -9z
m99 -44 c105 -44 79 -196 -32 -196 -49 0 -97 36 -107 80 -9 40 19 94 58 114
39 19 40 19 81 2z"/>
<path d="M385 708 c-2 -7 -16 -60 -30 -117 -26 -104 -24 -131 8 -118 16 6 72
221 62 237 -9 14 -35 12 -40 -2z"/>
<path d="M181 649 c-22 -28 -38 -56 -34 -63 24 -40 78 -96 94 -96 28 0 23 28
-11 67 -33 37 -31 51 9 87 27 24 28 56 2 56 -11 0 -36 -22 -60 -51z"/>
<path d="M500 682 c0 -10 14 -31 30 -47 17 -16 30 -34 30 -40 0 -6 -13 -24
-30 -40 -34 -33 -40 -65 -11 -65 19 0 101 85 101 105 0 6 -18 31 -41 58 -42
48 -79 62 -79 29z"/>
<path d="M357 306 c-8 -19 15 -37 32 -26 17 10 7 40 -13 40 -7 0 -16 -6 -19
-14z"/>
</g>
</svg>
